<mxfile host="app.diagrams.net" modified="2021-12-10T15:28:43.002Z" agent="5.0 (Windows NT 10.0; Win64; x64) AppleWebKit/537.36 (KHTML, like Gecko) Chrome/96.0.4664.45 Safari/537.36" etag="kCIEECzC7eUdSBPdyr3p" version="15.5.4" type="github">
  <diagram id="C5RBs43oDa-KdzZeNtuy" name="Page-1">
    <mxGraphModel dx="1422" dy="762" grid="1" gridSize="10" guides="1" tooltips="1" connect="1" arrows="1" fold="1" page="1" pageScale="1" pageWidth="827" pageHeight="1169" math="0" shadow="0">
      <root>
        <mxCell id="WIyWlLk6GJQsqaUBKTNV-0" />
        <mxCell id="WIyWlLk6GJQsqaUBKTNV-1" parent="WIyWlLk6GJQsqaUBKTNV-0" />
        <mxCell id="AaQVSdDZyxHcfwArJzsr-11" style="edgeStyle=orthogonalEdgeStyle;rounded=0;orthogonalLoop=1;jettySize=auto;html=1;exitX=0.5;exitY=1;exitDx=0;exitDy=0;entryX=0.5;entryY=0;entryDx=0;entryDy=0;" edge="1" parent="WIyWlLk6GJQsqaUBKTNV-1" source="AaQVSdDZyxHcfwArJzsr-0" target="AaQVSdDZyxHcfwArJzsr-9">
          <mxGeometry relative="1" as="geometry" />
        </mxCell>
        <mxCell id="AaQVSdDZyxHcfwArJzsr-0" value="&amp;nbsp;dans l&#39;un des 3 champs de recherches avancés" style="rounded=1;whiteSpace=wrap;html=1;" vertex="1" parent="WIyWlLk6GJQsqaUBKTNV-1">
          <mxGeometry x="540" y="160" width="200" height="60" as="geometry" />
        </mxCell>
        <mxCell id="AaQVSdDZyxHcfwArJzsr-10" style="edgeStyle=orthogonalEdgeStyle;rounded=0;orthogonalLoop=1;jettySize=auto;html=1;exitX=0.5;exitY=1;exitDx=0;exitDy=0;entryX=0.563;entryY=0;entryDx=0;entryDy=0;entryPerimeter=0;" edge="1" parent="WIyWlLk6GJQsqaUBKTNV-1" source="AaQVSdDZyxHcfwArJzsr-1" target="AaQVSdDZyxHcfwArJzsr-8">
          <mxGeometry relative="1" as="geometry" />
        </mxCell>
        <mxCell id="AaQVSdDZyxHcfwArJzsr-1" value="dans la barre de recherche principale" style="rounded=1;whiteSpace=wrap;html=1;shadow=0;strokeWidth=1;glass=0;" vertex="1" parent="WIyWlLk6GJQsqaUBKTNV-1">
          <mxGeometry x="80" y="160" width="200" height="60" as="geometry" />
        </mxCell>
        <mxCell id="AaQVSdDZyxHcfwArJzsr-6" style="edgeStyle=orthogonalEdgeStyle;rounded=0;orthogonalLoop=1;jettySize=auto;html=1;exitX=0;exitY=1;exitDx=0;exitDy=0;entryX=0.4;entryY=0;entryDx=0;entryDy=0;entryPerimeter=0;" edge="1" parent="WIyWlLk6GJQsqaUBKTNV-1" source="AaQVSdDZyxHcfwArJzsr-4" target="AaQVSdDZyxHcfwArJzsr-1">
          <mxGeometry relative="1" as="geometry" />
        </mxCell>
        <mxCell id="AaQVSdDZyxHcfwArJzsr-7" style="edgeStyle=orthogonalEdgeStyle;rounded=0;orthogonalLoop=1;jettySize=auto;html=1;exitX=1;exitY=1;exitDx=0;exitDy=0;entryX=0.5;entryY=0;entryDx=0;entryDy=0;" edge="1" parent="WIyWlLk6GJQsqaUBKTNV-1" source="AaQVSdDZyxHcfwArJzsr-4" target="AaQVSdDZyxHcfwArJzsr-0">
          <mxGeometry relative="1" as="geometry" />
        </mxCell>
        <mxCell id="AaQVSdDZyxHcfwArJzsr-4" value="Commencer la recherche" style="ellipse;whiteSpace=wrap;html=1;" vertex="1" parent="WIyWlLk6GJQsqaUBKTNV-1">
          <mxGeometry x="314" y="50" width="200" height="80" as="geometry" />
        </mxCell>
        <mxCell id="AaQVSdDZyxHcfwArJzsr-20" style="edgeStyle=orthogonalEdgeStyle;rounded=0;orthogonalLoop=1;jettySize=auto;html=1;exitX=0.5;exitY=1;exitDx=0;exitDy=0;entryX=0.458;entryY=0.008;entryDx=0;entryDy=0;entryPerimeter=0;" edge="1" parent="WIyWlLk6GJQsqaUBKTNV-1" source="AaQVSdDZyxHcfwArJzsr-8" target="AaQVSdDZyxHcfwArJzsr-14">
          <mxGeometry relative="1" as="geometry" />
        </mxCell>
        <mxCell id="AaQVSdDZyxHcfwArJzsr-8" value="saisir &amp;gt;= 3 carateres" style="shape=parallelogram;perimeter=parallelogramPerimeter;whiteSpace=wrap;html=1;fixedSize=1;" vertex="1" parent="WIyWlLk6GJQsqaUBKTNV-1">
          <mxGeometry x="90" y="250" width="160" height="60" as="geometry" />
        </mxCell>
        <mxCell id="AaQVSdDZyxHcfwArJzsr-40" style="edgeStyle=orthogonalEdgeStyle;rounded=0;orthogonalLoop=1;jettySize=auto;html=1;exitX=0.5;exitY=1;exitDx=0;exitDy=0;entryX=1;entryY=0.5;entryDx=0;entryDy=0;" edge="1" parent="WIyWlLk6GJQsqaUBKTNV-1" source="AaQVSdDZyxHcfwArJzsr-9" target="AaQVSdDZyxHcfwArJzsr-34">
          <mxGeometry relative="1" as="geometry">
            <mxPoint x="640" y="930" as="targetPoint" />
            <Array as="points">
              <mxPoint x="640" y="930" />
            </Array>
          </mxGeometry>
        </mxCell>
        <mxCell id="AaQVSdDZyxHcfwArJzsr-9" value="selectionner un mot-clé" style="shape=parallelogram;perimeter=parallelogramPerimeter;whiteSpace=wrap;html=1;fixedSize=1;" vertex="1" parent="WIyWlLk6GJQsqaUBKTNV-1">
          <mxGeometry x="560" y="250" width="160" height="60" as="geometry" />
        </mxCell>
        <mxCell id="AaQVSdDZyxHcfwArJzsr-22" value="" style="edgeStyle=orthogonalEdgeStyle;rounded=0;orthogonalLoop=1;jettySize=auto;html=1;" edge="1" parent="WIyWlLk6GJQsqaUBKTNV-1" source="AaQVSdDZyxHcfwArJzsr-14" target="AaQVSdDZyxHcfwArJzsr-21">
          <mxGeometry relative="1" as="geometry" />
        </mxCell>
        <mxCell id="AaQVSdDZyxHcfwArJzsr-27" value="" style="edgeStyle=orthogonalEdgeStyle;rounded=0;orthogonalLoop=1;jettySize=auto;html=1;" edge="1" parent="WIyWlLk6GJQsqaUBKTNV-1" source="AaQVSdDZyxHcfwArJzsr-14" target="AaQVSdDZyxHcfwArJzsr-26">
          <mxGeometry relative="1" as="geometry" />
        </mxCell>
        <mxCell id="AaQVSdDZyxHcfwArJzsr-14" value="chercher une correspondance dans...." style="swimlane;fontStyle=0;childLayout=stackLayout;horizontal=1;startSize=30;horizontalStack=0;resizeParent=1;resizeParentMax=0;resizeLast=0;collapsible=1;marginBottom=0;" vertex="1" parent="WIyWlLk6GJQsqaUBKTNV-1">
          <mxGeometry x="230" y="350" width="240" height="120" as="geometry" />
        </mxCell>
        <mxCell id="AaQVSdDZyxHcfwArJzsr-15" value="- le titre des recettes" style="text;strokeColor=none;fillColor=none;align=left;verticalAlign=middle;spacingLeft=4;spacingRight=4;overflow=hidden;points=[[0,0.5],[1,0.5]];portConstraint=eastwest;rotatable=0;" vertex="1" parent="AaQVSdDZyxHcfwArJzsr-14">
          <mxGeometry y="30" width="240" height="30" as="geometry" />
        </mxCell>
        <mxCell id="AaQVSdDZyxHcfwArJzsr-16" value="- la liste d&#39; ingrédients des recettes" style="text;strokeColor=none;fillColor=none;align=left;verticalAlign=middle;spacingLeft=4;spacingRight=4;overflow=hidden;points=[[0,0.5],[1,0.5]];portConstraint=eastwest;rotatable=0;" vertex="1" parent="AaQVSdDZyxHcfwArJzsr-14">
          <mxGeometry y="60" width="240" height="30" as="geometry" />
        </mxCell>
        <mxCell id="AaQVSdDZyxHcfwArJzsr-17" value="- la description des recettes" style="text;strokeColor=none;fillColor=none;align=left;verticalAlign=middle;spacingLeft=4;spacingRight=4;overflow=hidden;points=[[0,0.5],[1,0.5]];portConstraint=eastwest;rotatable=0;" vertex="1" parent="AaQVSdDZyxHcfwArJzsr-14">
          <mxGeometry y="90" width="240" height="30" as="geometry" />
        </mxCell>
        <mxCell id="AaQVSdDZyxHcfwArJzsr-18" style="edgeStyle=orthogonalEdgeStyle;rounded=0;orthogonalLoop=1;jettySize=auto;html=1;exitX=1;exitY=0.5;exitDx=0;exitDy=0;" edge="1" parent="AaQVSdDZyxHcfwArJzsr-14" source="AaQVSdDZyxHcfwArJzsr-16" target="AaQVSdDZyxHcfwArJzsr-16">
          <mxGeometry relative="1" as="geometry" />
        </mxCell>
        <mxCell id="AaQVSdDZyxHcfwArJzsr-25" style="edgeStyle=orthogonalEdgeStyle;rounded=0;orthogonalLoop=1;jettySize=auto;html=1;exitX=0.5;exitY=1;exitDx=0;exitDy=0;entryX=0.406;entryY=-0.05;entryDx=0;entryDy=0;entryPerimeter=0;" edge="1" parent="WIyWlLk6GJQsqaUBKTNV-1" source="AaQVSdDZyxHcfwArJzsr-21" target="AaQVSdDZyxHcfwArJzsr-23">
          <mxGeometry relative="1" as="geometry" />
        </mxCell>
        <mxCell id="AaQVSdDZyxHcfwArJzsr-21" value="non" style="rhombus;whiteSpace=wrap;html=1;" vertex="1" parent="WIyWlLk6GJQsqaUBKTNV-1">
          <mxGeometry x="70" y="387.5" width="50" height="45" as="geometry" />
        </mxCell>
        <mxCell id="AaQVSdDZyxHcfwArJzsr-23" value="afficher un message dans la barre de recherche" style="rounded=1;whiteSpace=wrap;html=1;" vertex="1" parent="WIyWlLk6GJQsqaUBKTNV-1">
          <mxGeometry x="30" y="490" width="160" height="60" as="geometry" />
        </mxCell>
        <mxCell id="AaQVSdDZyxHcfwArJzsr-29" value="" style="edgeStyle=orthogonalEdgeStyle;rounded=0;orthogonalLoop=1;jettySize=auto;html=1;" edge="1" parent="WIyWlLk6GJQsqaUBKTNV-1" source="AaQVSdDZyxHcfwArJzsr-26" target="AaQVSdDZyxHcfwArJzsr-28">
          <mxGeometry relative="1" as="geometry" />
        </mxCell>
        <mxCell id="AaQVSdDZyxHcfwArJzsr-26" value="oui" style="rhombus;whiteSpace=wrap;html=1;" vertex="1" parent="WIyWlLk6GJQsqaUBKTNV-1">
          <mxGeometry x="325" y="497.5" width="50" height="45" as="geometry" />
        </mxCell>
        <mxCell id="AaQVSdDZyxHcfwArJzsr-31" value="" style="edgeStyle=orthogonalEdgeStyle;rounded=0;orthogonalLoop=1;jettySize=auto;html=1;" edge="1" parent="WIyWlLk6GJQsqaUBKTNV-1" source="AaQVSdDZyxHcfwArJzsr-28" target="AaQVSdDZyxHcfwArJzsr-30">
          <mxGeometry relative="1" as="geometry" />
        </mxCell>
        <mxCell id="AaQVSdDZyxHcfwArJzsr-28" value="L&#39;interface &amp;amp; les champs de recherche avancés sont actualisé avec le résultat &lt;br&gt;de la recherche" style="rounded=1;whiteSpace=wrap;html=1;" vertex="1" parent="WIyWlLk6GJQsqaUBKTNV-1">
          <mxGeometry x="230" y="570" width="240" height="90" as="geometry" />
        </mxCell>
        <mxCell id="AaQVSdDZyxHcfwArJzsr-33" value="" style="edgeStyle=orthogonalEdgeStyle;rounded=0;orthogonalLoop=1;jettySize=auto;html=1;" edge="1" parent="WIyWlLk6GJQsqaUBKTNV-1" source="AaQVSdDZyxHcfwArJzsr-30" target="AaQVSdDZyxHcfwArJzsr-32">
          <mxGeometry relative="1" as="geometry" />
        </mxCell>
        <mxCell id="AaQVSdDZyxHcfwArJzsr-30" value="pour affiner sa recherche, &lt;br&gt;l&#39;utilisateur continue sa recherche dans les champs de recherche avancés" style="rounded=1;whiteSpace=wrap;html=1;" vertex="1" parent="WIyWlLk6GJQsqaUBKTNV-1">
          <mxGeometry x="230" y="700" width="240" height="60" as="geometry" />
        </mxCell>
        <mxCell id="AaQVSdDZyxHcfwArJzsr-35" value="" style="edgeStyle=orthogonalEdgeStyle;rounded=0;orthogonalLoop=1;jettySize=auto;html=1;" edge="1" parent="WIyWlLk6GJQsqaUBKTNV-1" source="AaQVSdDZyxHcfwArJzsr-32" target="AaQVSdDZyxHcfwArJzsr-34">
          <mxGeometry relative="1" as="geometry" />
        </mxCell>
        <mxCell id="AaQVSdDZyxHcfwArJzsr-32" value="lors de la frappe seul les mot-clé correspondants apparaissent" style="rounded=1;whiteSpace=wrap;html=1;" vertex="1" parent="WIyWlLk6GJQsqaUBKTNV-1">
          <mxGeometry x="230" y="800" width="240" height="60" as="geometry" />
        </mxCell>
        <mxCell id="AaQVSdDZyxHcfwArJzsr-36" style="edgeStyle=orthogonalEdgeStyle;rounded=0;orthogonalLoop=1;jettySize=auto;html=1;entryX=0.008;entryY=0.344;entryDx=0;entryDy=0;entryPerimeter=0;" edge="1" parent="WIyWlLk6GJQsqaUBKTNV-1" source="AaQVSdDZyxHcfwArJzsr-34" target="AaQVSdDZyxHcfwArJzsr-28">
          <mxGeometry relative="1" as="geometry">
            <mxPoint x="100" y="600" as="targetPoint" />
            <Array as="points">
              <mxPoint x="120" y="930" />
              <mxPoint x="120" y="600" />
            </Array>
          </mxGeometry>
        </mxCell>
        <mxCell id="AaQVSdDZyxHcfwArJzsr-39" style="edgeStyle=orthogonalEdgeStyle;rounded=0;orthogonalLoop=1;jettySize=auto;html=1;exitX=0.5;exitY=1;exitDx=0;exitDy=0;entryX=0.5;entryY=0;entryDx=0;entryDy=0;" edge="1" parent="WIyWlLk6GJQsqaUBKTNV-1" source="AaQVSdDZyxHcfwArJzsr-34" target="AaQVSdDZyxHcfwArJzsr-37">
          <mxGeometry relative="1" as="geometry" />
        </mxCell>
        <mxCell id="AaQVSdDZyxHcfwArJzsr-34" value="sélectionne un mot-clé qui apparait&lt;br&gt;&amp;nbsp;sous forme de tag" style="shape=parallelogram;perimeter=parallelogramPerimeter;whiteSpace=wrap;html=1;fixedSize=1;" vertex="1" parent="WIyWlLk6GJQsqaUBKTNV-1">
          <mxGeometry x="235" y="900" width="230" height="60" as="geometry" />
        </mxCell>
        <mxCell id="AaQVSdDZyxHcfwArJzsr-37" value="L&#39; utilisateur sélectionne une recette" style="ellipse;whiteSpace=wrap;html=1;" vertex="1" parent="WIyWlLk6GJQsqaUBKTNV-1">
          <mxGeometry x="308" y="1030" width="206" height="80" as="geometry" />
        </mxCell>
        <mxCell id="AaQVSdDZyxHcfwArJzsr-41" value="&amp;nbsp;Algorigramme de recherche pour &lt;i&gt;Les petits plats&lt;/i&gt;" style="text;html=1;align=left;verticalAlign=middle;resizable=0;points=[];autosize=1;strokeColor=none;fillColor=none;fontStyle=5" vertex="1" parent="WIyWlLk6GJQsqaUBKTNV-1">
          <mxGeometry x="10" y="1140" width="300" height="20" as="geometry" />
        </mxCell>
      </root>
    </mxGraphModel>
  </diagram>
</mxfile>
